<?xml version="1.0" encoding="UTF-8"?>
<svg id="Ebene_1" data-name="Ebene 1" xmlns="http://www.w3.org/2000/svg" version="1.1" viewBox="0 0 794 61">
  <defs>
    <style>
      .cls-1 {
        fill: none;
        stroke: #fff;
        stroke-miterlimit: 10;
      }

      .cls-2 {
        fill: #fff;
        stroke-width: 0px;
      }
    </style>
  </defs>
  <path class="cls-1" d="M4.72,53.29S157.47,7.75,397.09,7.75c133.21,0,252.66,12.6,392.24,45.54"/>
  <path class="cls-2" d="M788.99,53.45c-133.35-31.47-253.61-42.9-391.29-42.9-123.66,0-224.27,9.76-286.38,20.14C44.03,41.94,5.5,53.33,5.12,53.44l-.81-.3c.38-.11,39.03-11.53,106.46-22.8,62.23-10.4,162.42-22.79,286.32-22.79,68.74,0,132.17,3.41,193.93,10.43,64.53,7.33,129.51,18.83,198.66,35.15l-.7.33h0Z"/>
</svg>