<?xml version="1.0" encoding="UTF-8"?>
<svg id="Ebene_1" data-name="Ebene 1" xmlns="http://www.w3.org/2000/svg" version="1.1" viewBox="0 0 50 50">
  <defs>
    <style>
      .cls-1 {
        fill: #000;
      }

      .cls-1, .cls-2, .cls-3 {
        stroke-width: 0px;
      }

      .cls-2 {
        fill: #fff;
      }

      .cls-4 {
        display: none;
      }

      .cls-3 {
        fill: #4d4d4d;
      }
    </style>
  </defs>
  <g class="cls-4">
    <path class="cls-2" d="M31.36,39.16c-.54-1.35-1.72-1.55-2.69-.45-1.19,1.36-2.64,2.33-4.35,2.9-.93.31-1.88.4-2.85.5-.3.26-.6.33-.88-.04-.45-.08-.92-.12-1.36-.24-3.71-.95-6.21-3.24-7.18-6.95-.96-3.68-.07-6.95,2.78-9.58.42-.38.64-.82.61-1.38-.01-.23-.01-.46,0-.69.03-.69-.19-1.25-.84-1.55-.65-.3-1.21-.07-1.74.36-4.06,3.3-5.84,8.97-4.39,13.99,1.99,6.91,8.88,11.02,15.9,9.5,2.71-.59,5.01-1.88,6.87-3.96.5-.56.63-1.16.33-1.86-.07-.17-.14-.35-.21-.53Z"/>
    <path class="cls-2" d="M20.02,11.5c2.04.03,3.71-1.61,3.72-3.64,0-2.01-1.61-3.66-3.61-3.68-2.04-.02-3.7,1.6-3.71,3.64-.01,2.02,1.59,3.66,3.6,3.68Z"/>
    <path class="cls-2" d="M21.47,42.1c-.29-.01-.58-.02-.88-.04.29.15.58.1.88.04Z"/>
    <path class="cls-2" d="M41.79,38.76c-.42-1.08-1.1-1.38-2.2-.97-.54.2-1.09.4-1.65.62-.25-.67-.48-1.28-.71-1.89-1.26-3.41-2.53-6.81-3.78-10.22-.24-.64-.6-1.1-1.35-1.13-3.18-.05-6.35-.05-9.53,0-.17-.08-.38.04-.51-.1v-2.05c.27,0,.5,0,.73,0,1.93,0,3.85,0,5.78,0,1.05,0,1.59-.56,1.6-1.59,0-.36.02-.71,0-1.07-.04-.7-.41-1.12-1.12-1.31-.02.03-.04.05-.06.05.02-.02.04-.03.06-.05-.05-.01-.09-.02-.14-.03-.07-.05-.14-.05-.21-.02-1.83-.06-3.65-.05-5.48,0-.11-.05-.22-.05-.33,0-.22-.02-.44-.04-.65-.06-.03-.03-.07-.06-.1-.08-.02-.02-.04-.04-.07-.05-.11-1.11-.01-2.22-.05-3.33-.03-.88-.53-1.41-1.39-1.48-.33-.03-.67-.05-1-.09-1.36-.18-2,.35-2,1.7,0,3.95,0,7.9,0,11.85,0,1.25.52,1.74,1.78,1.74,3.24,0,6.47,0,9.71,0,.25,0,.5-.05.78.05.07.17.15.37.22.56,1.51,3.94,3.01,7.89,4.52,11.83.44,1.15,1.12,1.45,2.28,1.02,1.26-.47,2.52-.95,3.77-1.42,1.36-.51,1.64-1.13,1.11-2.48Z"/>
  </g>
  <g>
    <path class="cls-1" d="M31.36,39.16c-.54-1.35-1.72-1.55-2.69-.45-1.19,1.36-2.64,2.33-4.35,2.9-.93.31-1.88.4-2.85.5-.3.26-.6.33-.88-.04-.45-.08-.92-.12-1.36-.24-3.71-.95-6.21-3.24-7.18-6.95-.96-3.68-.07-6.95,2.78-9.58.42-.38.64-.82.61-1.38-.01-.23-.01-.46,0-.69.03-.69-.19-1.25-.84-1.55-.65-.3-1.21-.07-1.74.36-4.06,3.3-5.84,8.97-4.39,13.99,1.99,6.91,8.88,11.02,15.9,9.5,2.71-.59,5.01-1.88,6.87-3.96.5-.56.63-1.16.33-1.86-.07-.17-.14-.35-.21-.53Z"/>
    <path class="cls-1" d="M20.02,11.5c2.04.03,3.71-1.61,3.72-3.64,0-2.01-1.61-3.66-3.61-3.68-2.04-.02-3.7,1.6-3.71,3.64-.01,2.02,1.59,3.66,3.6,3.68Z"/>
    <path class="cls-1" d="M21.47,42.1c-.29-.01-.58-.02-.88-.04.29.15.58.1.88.04Z"/>
    <path class="cls-1" d="M41.79,38.76c-.42-1.08-1.1-1.38-2.2-.97-.54.2-1.09.4-1.65.62-.25-.67-.48-1.28-.71-1.89-1.26-3.41-2.53-6.81-3.78-10.22-.24-.64-.6-1.1-1.35-1.13-3.18-.05-6.35-.05-9.53,0-.17-.08-.38.04-.51-.1v-2.05c.27,0,.5,0,.73,0,1.93,0,3.85,0,5.78,0,1.05,0,1.59-.56,1.6-1.59,0-.36.02-.71,0-1.07-.04-.7-.41-1.12-1.12-1.31-.02.03-.04.05-.06.05.02-.02.04-.03.06-.05-.05-.01-.09-.02-.14-.03-.07-.05-.14-.05-.21-.02-1.83-.06-3.65-.05-5.48,0-.11-.05-.22-.05-.33,0-.22-.02-.44-.04-.65-.06-.03-.03-.07-.06-.1-.08-.02-.02-.04-.04-.07-.05-.11-1.11-.01-2.22-.05-3.33-.03-.88-.53-1.41-1.39-1.48-.33-.03-.67-.05-1-.09-1.36-.18-2,.35-2,1.7,0,3.95,0,7.9,0,11.85,0,1.25.52,1.74,1.78,1.74,3.24,0,6.47,0,9.71,0,.25,0,.5-.05.78.05.07.17.15.37.22.56,1.51,3.94,3.01,7.89,4.52,11.83.44,1.15,1.12,1.45,2.28,1.02,1.26-.47,2.52-.95,3.77-1.42,1.36-.51,1.64-1.13,1.11-2.48Z"/>
  </g>
  <g class="cls-4">
    <path class="cls-3" d="M31.36,39.16c-.54-1.35-1.72-1.55-2.69-.45-1.19,1.36-2.64,2.33-4.35,2.9-.93.31-1.88.4-2.85.5-.3.26-.6.33-.88-.04-.45-.08-.92-.12-1.36-.24-3.71-.95-6.21-3.24-7.18-6.95-.96-3.68-.07-6.95,2.78-9.58.42-.38.64-.82.61-1.38-.01-.23-.01-.46,0-.69.03-.69-.19-1.25-.84-1.55-.65-.3-1.21-.07-1.74.36-4.06,3.3-5.84,8.97-4.39,13.99,1.99,6.91,8.88,11.02,15.9,9.5,2.71-.59,5.01-1.88,6.87-3.96.5-.56.63-1.16.33-1.86-.07-.17-.14-.35-.21-.53Z"/>
    <path class="cls-3" d="M20.02,11.5c2.04.03,3.71-1.61,3.72-3.64,0-2.01-1.61-3.66-3.61-3.68-2.04-.02-3.7,1.6-3.71,3.64-.01,2.02,1.59,3.66,3.6,3.68Z"/>
    <path class="cls-3" d="M21.47,42.1c-.29-.01-.58-.02-.88-.04.29.15.58.1.88.04Z"/>
    <path class="cls-3" d="M41.79,38.76c-.42-1.08-1.1-1.38-2.2-.97-.54.2-1.09.4-1.65.62-.25-.67-.48-1.28-.71-1.89-1.26-3.41-2.53-6.81-3.78-10.22-.24-.64-.6-1.1-1.35-1.13-3.18-.05-6.35-.05-9.53,0-.17-.08-.38.04-.51-.1v-2.05c.27,0,.5,0,.73,0,1.93,0,3.85,0,5.78,0,1.05,0,1.59-.56,1.6-1.59,0-.36.02-.71,0-1.07-.04-.7-.41-1.12-1.12-1.31-.02.03-.04.05-.06.05.02-.02.04-.03.06-.05-.05-.01-.09-.02-.14-.03-.07-.05-.14-.05-.21-.02-1.83-.06-3.65-.05-5.48,0-.11-.05-.22-.05-.33,0-.22-.02-.44-.04-.65-.06-.03-.03-.07-.06-.1-.08-.02-.02-.04-.04-.07-.05-.11-1.11-.01-2.22-.05-3.33-.03-.88-.53-1.41-1.39-1.48-.33-.03-.67-.05-1-.09-1.36-.18-2,.35-2,1.7,0,3.95,0,7.9,0,11.85,0,1.25.52,1.74,1.78,1.74,3.24,0,6.47,0,9.71,0,.25,0,.5-.05.78.05.07.17.15.37.22.56,1.51,3.94,3.01,7.89,4.52,11.83.44,1.15,1.12,1.45,2.28,1.02,1.26-.47,2.52-.95,3.77-1.42,1.36-.51,1.64-1.13,1.11-2.48Z"/>
  </g>
  <g class="cls-4">
    <path class="cls-2" d="M24.93,29.47c6.48,0,11.74-5.59,11.74-12.49,0-8.76-5.26-12.49-11.74-12.49s-11.74,3.73-11.74,12.49c0,6.9,5.26,12.49,11.74,12.49Z"/>
    <path class="cls-2" d="M32.64,28.26c-2.06,1.92-4.76,3.08-7.72,3.08s-5.72-1.19-7.79-3.15c-7.22,2.62-12.14,8.95-12.41,17.31h40.55c-.55-8.08-5.53-14.53-12.63-17.24Z"/>
  </g>
  <g class="cls-4">
    <path class="cls-1" d="M24.93,29.47c6.48,0,11.74-5.59,11.74-12.49,0-8.76-5.26-12.49-11.74-12.49s-11.74,3.73-11.74,12.49c0,6.9,5.26,12.49,11.74,12.49Z"/>
    <path class="cls-1" d="M32.64,28.26c-2.06,1.92-4.76,3.08-7.72,3.08s-5.72-1.19-7.79-3.15c-7.22,2.62-12.14,8.95-12.41,17.31h40.55c-.55-8.08-5.53-14.53-12.63-17.24Z"/>
  </g>
  <g class="cls-4">
    <path class="cls-3" d="M24.93,29.47c6.48,0,11.74-5.59,11.74-12.49,0-8.76-5.26-12.49-11.74-12.49s-11.74,3.73-11.74,12.49c0,6.9,5.26,12.49,11.74,12.49Z"/>
    <path class="cls-3" d="M32.64,28.26c-2.06,1.92-4.76,3.08-7.72,3.08s-5.72-1.19-7.79-3.15c-7.22,2.62-12.14,8.95-12.41,17.31h40.55c-.55-8.08-5.53-14.53-12.63-17.24Z"/>
  </g>
</svg>